<svg width="2459" height="1447" viewBox="0 0 2459 1447" fill="none" xmlns="http://www.w3.org/2000/svg">
<g clip-path="url(#clip0_114_12)">
<rect width="2459" height="1447" fill="#121214"/>
<path d="M122.923 -2V109.462M122.923 -2H0V109.462M122.923 -2H245.846M122.923 109.462L122.923 220.923M122.923 109.462H0M122.923 109.462L245.846 109.462M122.923 220.923V332.385M122.923 220.923H0M122.923 220.923L245.846 220.923M122.923 332.385L122.923 443.846M122.923 332.385H0M122.923 332.385H245.846M122.923 443.846V555.308M122.923 443.846H0M122.923 443.846H245.846M122.923 555.308V666.769M122.923 555.308H0M122.923 555.308H245.846M122.923 666.769L122.923 778.231M122.923 666.769H0M122.923 666.769H245.846M122.923 778.231V889.692M122.923 778.231H0M122.923 778.231H245.846M122.923 889.692V1001.15M122.923 889.692H0M122.923 889.692H245.846M122.923 1001.15L122.923 1112.62M122.923 1001.15H0M122.923 1001.15H245.846M122.923 1112.62V1224.08M122.923 1112.62H0M122.923 1112.62H245.846M122.923 1224.08L122.923 1335.54M122.923 1224.08H0M122.923 1224.08H245.846M122.923 1335.54V1447M122.923 1335.54H0M122.923 1335.54H245.846M122.923 1447L0 1447V1335.54M122.923 1447H245.846M0 109.462V220.923M0 220.923V332.385M0 332.385V443.846M0 443.846V555.308M0 555.308V666.769M0 666.769V778.231M0 778.231V889.692M0 889.692V1001.15M0 1001.15V1112.62M0 1112.62V1224.08M0 1224.08V1335.54M245.846 -2V109.462M245.846 -2H368.769M245.846 109.462V220.923M245.846 109.462H368.769M245.846 220.923L245.846 332.385M245.846 220.923H368.769M245.846 332.385V443.846M245.846 332.385L368.769 332.385M245.846 443.846V555.308M245.846 443.846H368.769M245.846 555.308V666.769M245.846 555.308H368.769M245.846 666.769L245.846 778.231M245.846 666.769H368.769M245.846 778.231V889.692M245.846 778.231H368.769M245.846 889.692V1001.15M245.846 889.692H368.769M245.846 1001.15V1112.62M245.846 1001.15H368.769M245.846 1112.62L245.846 1224.08M245.846 1112.62H368.769M245.846 1224.08V1335.54M245.846 1224.08H368.769M245.846 1335.54V1447M245.846 1335.54H368.769M245.846 1447H368.769M368.769 -2V109.462M368.769 -2H491.692M368.769 109.462V220.923M368.769 109.462L491.692 109.462M368.769 220.923L368.769 332.385M368.769 220.923H491.692M368.769 332.385V443.846M368.769 332.385H491.692M368.769 443.846V555.308M368.769 443.846L491.692 443.846M368.769 555.308V666.769M368.769 555.308L491.692 555.308M368.769 666.769L368.769 778.231M368.769 666.769H491.692M368.769 778.231V889.692M368.769 778.231H491.692M368.769 889.692V1001.15M368.769 889.692H491.692M368.769 1001.15V1112.62M368.769 1001.15H491.692M368.769 1112.62L368.769 1224.08M368.769 1112.62H491.692M368.769 1224.08V1335.54M368.769 1224.08H491.692M368.769 1335.54V1447M368.769 1335.54H491.692M368.769 1447H491.692M491.692 -2V109.462M491.692 -2H614.615M491.692 109.462V220.923M491.692 109.462H614.615M491.692 220.923V332.385M491.692 220.923L614.615 220.923M491.692 332.385V443.846M491.692 332.385H614.615M491.692 443.846V555.308M491.692 443.846H614.615M491.692 555.308V666.769M491.692 555.308H614.615M491.692 666.769L491.692 778.231M491.692 666.769H614.615M491.692 778.231V889.692M491.692 778.231H614.615M491.692 889.692V1001.15M491.692 889.692H614.615M491.692 1001.15V1112.62M491.692 1001.15H614.615M491.692 1112.62V1224.08M491.692 1112.62H614.615M491.692 1224.08V1335.54M491.692 1224.08H614.615M491.692 1335.54V1447M491.692 1335.54H614.615M491.692 1447H614.615M860.462 -2V109.462M860.462 -2H737.538M860.462 -2H983.385M860.462 109.462V220.923M860.462 109.462H737.538M860.462 109.462L983.385 109.462M860.462 220.923V332.385M860.462 220.923H737.538M860.462 220.923H983.385M860.462 332.385V443.846M860.462 332.385L737.538 332.385M860.462 332.385H983.385M860.462 443.846V555.308M860.462 443.846H737.538M860.462 443.846H983.385M860.462 555.308V666.769M860.462 555.308H737.538M860.462 555.308H983.385M860.462 666.769L860.461 778.231M860.462 666.769L737.538 666.769M860.462 666.769H983.385M860.461 778.231V889.692M860.461 778.231L737.538 778.231M860.461 778.231H983.385M860.461 889.692V1001.15M860.461 889.692L737.538 889.692M860.461 889.692H983.385M860.461 1001.15V1112.62M860.461 1001.15H737.538M860.461 1001.15H983.385M860.461 1112.62V1224.08M860.461 1112.62L737.538 1112.62M860.461 1112.62H983.385M860.461 1224.08V1335.54M860.461 1224.08L737.538 1224.08M860.461 1224.08H983.385M860.461 1335.54V1447M860.461 1335.54L737.538 1335.54M860.461 1335.54H983.385M860.461 1447H737.538M860.461 1447H983.385M1229.23 -2V109.462M1229.23 -2H1106.31M1229.23 -2H1352.15M1229.23 109.462V220.923M1229.23 109.462L1106.31 109.462M1229.23 109.462H1352.15M1229.23 220.923V332.385M1229.23 220.923H1106.31M1229.23 220.923H1352.15M1229.23 332.385V443.846M1229.23 332.385H1106.31M1229.23 332.385L1352.15 332.385M1229.23 443.846V555.308M1229.23 443.846L1106.31 443.846M1229.23 443.846H1352.15M1229.23 555.308V666.769M1229.23 555.308L1106.31 555.308M1229.23 555.308H1352.15M1229.23 666.769L1229.23 778.231M1229.23 666.769H1106.31M1229.23 666.769H1352.15M1229.23 778.231V889.692M1229.23 778.231H1106.31M1229.23 778.231H1352.15M1229.23 889.692V1001.15M1229.23 889.692H1106.31M1229.23 889.692H1352.15M1229.23 1001.15V1112.62M1229.23 1001.15H1106.31M1229.23 1001.15H1352.15M1229.23 1112.62V1224.08M1229.23 1112.62H1106.31M1229.23 1112.62H1352.15M1229.23 1224.08V1335.54M1229.23 1224.08H1106.31M1229.23 1224.08H1352.15M1229.23 1335.54V1447M1229.23 1335.54H1106.31M1229.23 1335.54H1352.15M1229.23 1447H1106.31M1229.23 1447H1352.15M614.615 -2V109.462M614.615 -2H737.538M614.615 109.462V220.923M614.615 109.462L737.538 109.462M614.615 220.923V332.385M614.615 220.923H737.538M614.615 332.385V443.846M614.615 332.385H737.538M614.615 443.846V555.308M614.615 443.846H737.538M614.615 555.308V666.769M614.615 555.308H737.538M614.615 666.769L614.615 778.231M614.615 666.769H737.538M614.615 778.231V889.692M614.615 778.231H737.538M614.615 889.692V1001.15M614.615 889.692H737.538M614.615 1001.15V1112.62M614.615 1001.15H737.538M614.615 1112.62V1224.08M614.615 1112.62H737.538M614.615 1224.08V1335.54M614.615 1224.08H737.538M614.615 1335.54V1447M614.615 1335.54H737.538M614.615 1447H737.538M983.385 -2V109.462M983.385 -2H1106.31M983.385 109.462V220.923M983.385 109.462H1106.31M983.385 220.923V332.385M983.385 220.923L1106.31 220.923M983.385 332.385V443.846M983.385 332.385H1106.31M983.385 443.846V555.308M983.385 443.846H1106.31M983.385 555.308V666.769M983.385 555.308H1106.31M983.385 666.769L983.385 778.231M983.385 666.769H1106.31M983.385 778.231V889.692M983.385 778.231H1106.31M983.385 889.692V1001.15M983.385 889.692H1106.31M983.385 1001.15V1112.62M983.385 1001.15H1106.31M983.385 1112.62V1224.08M983.385 1112.62H1106.31M983.385 1224.08V1335.54M983.385 1224.08H1106.31M983.385 1335.54V1447M983.385 1335.54H1106.31M983.385 1447H1106.31M1352.15 -2V109.462M1352.15 -2H1475.08M1352.15 109.462V220.923M1352.15 109.462L1475.08 109.462M1352.15 220.923V332.385M1352.15 220.923L1475.08 220.923M1352.15 332.385V443.846M1352.15 332.385H1475.08M1352.15 443.846V555.308M1352.15 443.846H1475.08M1352.15 555.308V666.769M1352.15 555.308H1475.08M1352.15 666.769V778.231M1352.15 666.769H1475.08M1352.15 778.231V889.692M1352.15 778.231H1475.08M1352.15 889.692V1001.15M1352.15 889.692H1475.08M1352.15 1001.15V1112.62M1352.15 1001.15H1475.08M1352.15 1112.62V1224.08M1352.15 1112.62H1475.08M1352.15 1224.08V1335.54M1352.15 1224.08H1475.08M1352.15 1335.54V1447M1352.15 1335.54H1475.08M1352.15 1447H1475.08M737.538 -2V109.462M737.538 109.462V220.923M737.538 220.923V332.385M737.538 332.385L737.538 443.846M737.538 443.846V555.308M737.538 555.308V666.769M737.538 666.769V778.231M737.538 778.231V889.692M737.538 889.692V1001.15M737.538 1001.15L737.538 1112.62M737.538 1112.62V1224.08M737.538 1224.08V1335.54M737.538 1335.54V1447M1106.31 -2V109.462M1106.31 109.462V220.923M1106.31 220.923V332.385M1106.31 332.385V443.846M1106.31 443.846V555.308M1106.31 555.308V666.769M1106.31 666.769V778.231M1106.31 778.231V889.692M1106.31 889.692V1001.15M1106.31 1001.15V1112.62M1106.31 1112.62V1224.08M1106.31 1224.08V1335.54M1106.31 1335.54V1447M1475.08 -2V109.462M1475.08 -2H1598V1447H1475.08M1475.08 109.462V220.923M1475.08 109.462H1598M1475.08 220.923V332.385M1475.08 220.923H1598M1475.08 332.385V443.846M1475.08 332.385H1598M1475.08 443.846V555.308M1475.08 443.846H1598M1475.08 555.308V666.769M1475.08 555.308H1598M1475.08 666.769V778.231M1475.08 666.769H1598M1475.08 778.231V889.692M1475.08 778.231H1598M1475.08 889.692V1001.15M1475.08 889.692H1598M1475.08 1001.15V1112.62M1475.08 1001.15H1598M1475.08 1112.62V1224.08M1475.08 1112.62H1598M1475.08 1224.08V1335.54M1475.08 1224.08H1598M1475.08 1335.54V1447M1475.08 1335.54H1598M983.923 -2V109.462M983.923 -2H861V109.462M983.923 -2H1106.85M983.923 109.462V220.923M983.923 109.462H861M983.923 109.462L1106.85 109.462M983.923 220.923V332.385M983.923 220.923H861M983.923 220.923L1106.85 220.923M983.923 332.385V443.846M983.923 332.385H861M983.923 332.385H1106.85M983.923 443.846V555.308M983.923 443.846H861M983.923 443.846H1106.85M983.923 555.308V666.769M983.923 555.308H861M983.923 555.308H1106.85M983.923 666.769V778.231M983.923 666.769H861M983.923 666.769H1106.85M983.923 778.231V889.692M983.923 778.231H861M983.923 778.231H1106.85M983.923 889.692V1001.15M983.923 889.692H861M983.923 889.692H1106.85M983.923 1001.15V1112.62M983.923 1001.15H861M983.923 1001.15H1106.85M983.923 1112.62V1224.08M983.923 1112.62H861M983.923 1112.62H1106.85M983.923 1224.08L983.923 1335.54M983.923 1224.08H861M983.923 1224.08H1106.85M983.923 1335.54V1447M983.923 1335.54H861M983.923 1335.54H1106.85M983.923 1447L861 1447V1335.54M983.923 1447H1106.85M861 109.462V220.923M861 220.923V332.385M861 332.385V443.846M861 443.846V555.308M861 555.308V666.769M861 666.769V778.231M861 778.231V889.692M861 889.692V1001.15M861 1001.15V1112.62M861 1112.62V1224.08M861 1224.08V1335.54M1106.85 -2V109.462M1106.85 -2H1229.77M1106.85 109.462V220.923M1106.85 109.462H1229.77M1106.85 220.923V332.385M1106.85 220.923H1229.77M1106.85 332.385V443.846M1106.85 332.385L1229.77 332.385M1106.85 443.846V555.308M1106.85 443.846H1229.77M1106.85 555.308V666.769M1106.85 555.308H1229.77M1106.85 666.769V778.231M1106.85 666.769H1229.77M1106.85 778.231V889.692M1106.85 778.231H1229.77M1106.85 889.692V1001.15M1106.85 889.692H1229.77M1106.85 1001.15V1112.62M1106.85 1001.15H1229.77M1106.85 1112.62V1224.08M1106.85 1112.62H1229.77M1106.85 1224.08V1335.54M1106.85 1224.08H1229.77M1106.85 1335.54V1447M1106.85 1335.54H1229.77M1106.85 1447H1229.77M1229.77 -2V109.462M1229.77 -2H1352.69M1229.77 109.462V220.923M1229.77 109.462L1352.69 109.462M1229.77 220.923L1229.77 332.385M1229.77 220.923H1352.69M1229.77 332.385V443.846M1229.77 332.385H1352.69M1229.77 443.846V555.308M1229.77 443.846L1352.69 443.846M1229.77 555.308V666.769M1229.77 555.308L1352.69 555.308M1229.77 666.769V778.231M1229.77 666.769H1352.69M1229.77 778.231V889.692M1229.77 778.231H1352.69M1229.77 889.692V1001.15M1229.77 889.692H1352.69M1229.77 1001.15V1112.62M1229.77 1001.15H1352.69M1229.77 1112.62V1224.08M1229.77 1112.62H1352.69M1229.77 1224.08V1335.54M1229.77 1224.08H1352.69M1229.77 1335.54V1447M1229.77 1335.54H1352.69M1229.77 1447H1352.69M1352.69 -2V109.462M1352.69 -2H1475.62M1352.69 109.462V220.923M1352.69 109.462H1475.62M1352.69 220.923V332.385M1352.69 220.923L1475.62 220.923M1352.69 332.385V443.846M1352.69 332.385H1475.62M1352.69 443.846V555.308M1352.69 443.846H1475.62M1352.69 555.308V666.769M1352.69 555.308H1475.62M1352.69 666.769L1352.69 778.231M1352.69 666.769H1475.62M1352.69 778.231V889.692M1352.69 778.231H1475.62M1352.69 889.692V1001.15M1352.69 889.692H1475.62M1352.69 1001.15V1112.62M1352.69 1001.15H1475.62M1352.69 1112.62V1224.08M1352.69 1112.62H1475.62M1352.69 1224.08V1335.54M1352.69 1224.08H1475.62M1352.69 1335.54V1447M1352.69 1335.54H1475.62M1352.69 1447H1475.62M1721.46 -2V109.462M1721.46 -2H1598.54M1721.46 -2H1844.38M1721.46 109.462V220.923M1721.46 109.462H1598.54M1721.46 109.462L1844.38 109.462M1721.46 220.923V332.385M1721.46 220.923H1598.54M1721.46 220.923H1844.38M1721.46 332.385V443.846M1721.46 332.385L1598.54 332.385M1721.46 332.385H1844.38M1721.46 443.846V555.308M1721.46 443.846H1598.54M1721.46 443.846H1844.38M1721.46 555.308V666.769M1721.46 555.308H1598.54M1721.46 555.308H1844.38M1721.46 666.769V778.231M1721.46 666.769L1598.54 666.769M1721.46 666.769H1844.38M1721.46 778.231V889.692M1721.46 778.231L1598.54 778.231M1721.46 778.231H1844.38M1721.46 889.692V1001.15M1721.46 889.692L1598.54 889.692M1721.46 889.692H1844.38M1721.46 1001.15V1112.62M1721.46 1001.15H1598.54M1721.46 1001.15H1844.38M1721.46 1112.62V1224.08M1721.46 1112.62L1598.54 1112.62M1721.46 1112.62H1844.38M1721.46 1224.08V1335.54M1721.46 1224.08L1598.54 1224.08M1721.46 1224.08H1844.38M1721.46 1335.54V1447M1721.46 1335.54L1598.54 1335.54M1721.46 1335.54H1844.38M1721.46 1447H1598.54M1721.46 1447H1844.38M2090.23 -2V109.462M2090.23 -2H1967.31M2090.23 -2H2213.15M2090.23 109.462V220.923M2090.23 109.462L1967.31 109.462M2090.23 109.462H2213.15M2090.23 220.923V332.385M2090.23 220.923H1967.31M2090.23 220.923H2213.15M2090.23 332.385V443.846M2090.23 332.385H1967.31M2090.23 332.385L2213.15 332.385M2090.23 443.846V555.308M2090.23 443.846L1967.31 443.846M2090.23 443.846H2213.15M2090.23 555.308V666.769M2090.23 555.308L1967.31 555.308M2090.23 555.308H2213.15M2090.23 666.769L2090.23 778.231M2090.23 666.769H1967.31M2090.23 666.769H2213.15M2090.23 778.231V889.692M2090.23 778.231H1967.31M2090.23 778.231H2213.15M2090.23 889.692V1001.15M2090.23 889.692H1967.31M2090.23 889.692H2213.15M2090.23 1001.15V1112.62M2090.23 1001.15H1967.31M2090.23 1001.15H2213.15M2090.23 1112.62V1224.08M2090.23 1112.62H1967.31M2090.23 1112.62H2213.15M2090.23 1224.08V1335.54M2090.23 1224.08H1967.31M2090.23 1224.08H2213.15M2090.23 1335.54V1447M2090.23 1335.54H1967.31M2090.23 1335.54H2213.15M2090.23 1447H1967.31M2090.23 1447H2213.15M1475.62 -2V109.462M1475.62 -2H1598.54M1475.62 109.462V220.923M1475.62 109.462L1598.54 109.462M1475.62 220.923V332.385M1475.62 220.923H1598.54M1475.62 332.385V443.846M1475.62 332.385H1598.54M1475.62 443.846V555.308M1475.62 443.846H1598.54M1475.62 555.308V666.769M1475.62 555.308H1598.54M1475.62 666.769V778.231M1475.62 666.769H1598.54M1475.62 778.231V889.692M1475.62 778.231H1598.54M1475.62 889.692V1001.15M1475.62 889.692H1598.54M1475.62 1001.15V1112.62M1475.62 1001.15H1598.54M1475.62 1112.62V1224.08M1475.62 1112.62H1598.54M1475.62 1224.08V1335.54M1475.62 1224.08H1598.54M1475.62 1335.54V1447M1475.62 1335.54H1598.54M1475.62 1447H1598.54M1844.38 -2V109.462M1844.38 -2H1967.31M1844.38 109.462V220.923M1844.38 109.462H1967.31M1844.38 220.923V332.385M1844.38 220.923L1967.31 220.923M1844.38 332.385V443.846M1844.38 332.385H1967.31M1844.38 443.846V555.308M1844.38 443.846H1967.31M1844.38 555.308V666.769M1844.38 555.308H1967.31M1844.38 666.769V778.231M1844.38 666.769H1967.31M1844.38 778.231V889.692M1844.38 778.231H1967.31M1844.38 889.692V1001.15M1844.38 889.692H1967.31M1844.38 1001.15V1112.62M1844.38 1001.15H1967.31M1844.38 1112.62V1224.08M1844.38 1112.62H1967.31M1844.38 1224.08V1335.54M1844.38 1224.08H1967.31M1844.38 1335.54V1447M1844.38 1335.54H1967.31M1844.38 1447H1967.31M2213.15 -2V109.462M2213.15 -2H2336.08M2213.15 109.462V220.923M2213.15 109.462L2336.08 109.462M2213.15 220.923V332.385M2213.15 220.923L2336.08 220.923M2213.15 332.385V443.846M2213.15 332.385H2336.08M2213.15 443.846V555.308M2213.15 443.846H2336.08M2213.15 555.308V666.769M2213.15 555.308H2336.08M2213.15 666.769V778.231M2213.15 666.769H2336.08M2213.15 778.231V889.692M2213.15 778.231H2336.08M2213.15 889.692V1001.15M2213.15 889.692H2336.08M2213.15 1001.15V1112.62M2213.15 1001.15H2336.08M2213.15 1112.62V1224.08M2213.15 1112.62H2336.08M2213.15 1224.08V1335.54M2213.15 1224.08H2336.08M2213.15 1335.54V1447M2213.15 1335.54H2336.08M2213.15 1447H2336.08M1598.54 -2V109.462M1598.54 109.462V220.923M1598.54 220.923V332.385M1598.54 332.385V443.846M1598.54 443.846V555.308M1598.54 555.308V666.769M1598.54 666.769V778.231M1598.54 778.231V889.692M1598.54 889.692V1001.15M1598.54 1001.15L1598.54 1112.62M1598.54 1112.62V1224.08M1598.54 1224.08V1335.54M1598.54 1335.54V1447M1967.31 -2V109.462M1967.31 109.462V220.923M1967.31 220.923V332.385M1967.31 332.385V443.846M1967.31 443.846V555.308M1967.31 555.308V666.769M1967.31 666.769V778.231M1967.31 778.231V889.692M1967.31 889.692V1001.15M1967.31 1001.15V1112.62M1967.31 1112.62V1224.08M1967.31 1224.08V1335.54M1967.31 1335.54V1447M2336.08 -2V109.462M2336.08 -2H2459V1447H2336.08M2336.08 109.462V220.923M2336.08 109.462H2459M2336.08 220.923V332.385M2336.08 220.923H2459M2336.08 332.385V443.846M2336.08 332.385H2459M2336.08 443.846V555.308M2336.08 443.846H2459M2336.08 555.308V666.769M2336.08 555.308H2459M2336.08 666.769V778.231M2336.08 666.769H2459M2336.08 778.231V889.692M2336.08 778.231H2459M2336.08 889.692V1001.15M2336.08 889.692H2459M2336.08 1001.15V1112.62M2336.08 1001.15H2459M2336.08 1112.62V1224.08M2336.08 1112.62H2459M2336.08 1224.08V1335.54M2336.08 1224.08H2459M2336.08 1335.54V1447M2336.08 1335.54H2459" stroke="url(#paint0_linear_114_12)"/>
</g>
<defs>
<linearGradient id="paint0_linear_114_12" x1="0" y1="-2" x2="2298.95" y2="1600.17" gradientUnits="userSpaceOnUse">
<stop stop-color="white" stop-opacity="0.1"/>
<stop offset="1" stop-color="white" stop-opacity="0"/>
</linearGradient>
<clipPath id="clip0_114_12">
<rect width="2459" height="1447" fill="white"/>
</clipPath>
</defs>
</svg>
