<svg xmlns="http://www.w3.org/2000/svg" xmlns:xlink="http://www.w3.org/1999/xlink" width="1080" zoomAndPan="magnify" viewBox="0 0 810 809.999993" height="1080" preserveAspectRatio="xMidYMid meet" version="1.0"><defs><clipPath id="21d1f29841"><path d="M 267.097656 243 L 543 243 L 543 567 L 267.097656 567 Z M 267.097656 243 " clip-rule="nonzero"/></clipPath></defs><rect x="-81" width="972" fill="#ffffff" y="-80.999999" height="971.999992" fill-opacity="1"/><rect x="-81" width="972" fill="#000000" y="-80.999999" height="971.999992" fill-opacity="1"/><g clip-path="url(#21d1f29841)"><path fill="#b200f9" d="M 477.023438 488.777344 C 483.097656 466.183594 480.554688 466.367188 495.832031 469.816406 L 494.03125 468.183594 C 493.441406 467.714844 492.820312 467.359375 492.230469 466.972656 L 441.140625 434.84375 C 432.257812 429.15625 283.835938 336.28125 277.019531 333.015625 C 278.585938 333.640625 288.542969 342.503906 291.152344 344.609375 C 328.617188 374.886719 316.789062 373.492188 314.046875 392.484375 L 415.957031 455.585938 C 420.296875 458.261719 426.371094 462.53125 430.945312 464.535156 L 425.410156 486.621094 C 427.160156 488.050781 448.492188 501.476562 449.367188 501.730469 C 443.328125 501.023438 435.65625 498.027344 427.546875 497.171875 C 412.289062 495.554688 350.667969 496.800781 348.820312 496.394531 C 346.75 495.402344 347.019531 495.167969 345.371094 493.015625 C 344.511719 491.886719 343.082031 490.355469 342.425781 489.3125 C 339.71875 485.042969 346.917969 468.941406 348.820312 457.890625 C 346.785156 456.140625 308.582031 431.796875 303.800781 429.828125 L 267.164062 567 L 293.507812 552.164062 C 296.5 550.347656 303.753906 545.738281 306.59375 544.609375 C 313.105469 542.035156 423.578125 545.738281 428.320312 543.246094 L 462.808594 515.859375 C 468.8125 511.386719 471.371094 510.375 472.667969 505.078125 C 473.976562 499.710938 475.542969 494.242188 477.023438 488.777344 Z M 361.351562 308.390625 C 362.144531 307.917969 363.890625 309.332031 362.160156 308.726562 C 362.144531 308.707031 360.359375 308.996094 361.351562 308.390625 Z M 312.582031 339.292969 C 320.996094 346.726562 430.476562 412.957031 448.878906 424.902344 L 524.429688 470.203125 C 521.921875 468.035156 520.121094 466.652344 517.632812 464.449219 C 512.300781 459.738281 494.820312 445.019531 492.667969 439.335938 C 490.296875 433.027344 494.703125 424.226562 495.761719 418.085938 C 491.910156 414.453125 486.257812 411.746094 481.246094 408.71875 L 408.554688 363.515625 C 403.238281 360.21875 399.085938 357.679688 394.039062 354.449219 C 390.386719 352.144531 382.515625 346.675781 379.082031 345.261719 L 384.703125 323.78125 C 380.816406 319.695312 367.207031 313.25 363.101562 309.363281 C 363.015625 309.28125 362.832031 309.09375 362.714844 308.960938 C 370.148438 310.070312 376.1875 312.222656 384.652344 312.964844 C 400.734375 314.394531 443.125 313.097656 462.355469 313.503906 C 467.769531 323.378906 470.109375 317.457031 466.609375 331 C 464.742188 338.214844 462.253906 345.53125 460.972656 352.414062 C 469.03125 356.5 500.253906 377.695312 505.789062 379.917969 L 542.832031 243 C 534.523438 246.902344 505.167969 264.683594 503.332031 265.355469 C 498.976562 266.9375 409.078125 265.914062 399.671875 265.914062 C 379.824219 265.914062 385.710938 263.589844 369.292969 276.441406 L 340.039062 299.523438 C 336.722656 302.03125 333.664062 318.230469 332.433594 322.871094 C 327.976562 339.492188 330.027344 345.5 312.582031 339.292969 Z M 312.582031 339.292969 " fill-opacity="1" fill-rule="evenodd"/></g></svg>